<svg xmlns="http://www.w3.org/2000/svg" enable-background="new 0 0 3000 3000" viewBox="0 0 3000 3000" id="learning">
  <path fill="#0e4275" d="M228.12,1481.86l106.71-9.58l4.58,50.97l-173.88,15.61l-29.85-332.52l67.17-6.03L228.12,1481.86z"></path>
  <path fill="#f7c19b" d="m161.87 1547.19 9.12 4.73 2.66-3.53c0 0 12.78-9.03 2.18-17.01-4.13-3.11-9.94.63-8.77 5.66.02.07.03.14.05.21.04.17-.19.28-.29.13l-2.33-3.6c-.4-.61-1.21-.8-1.83-.42l0 0c-.57.35-.81 1.06-.55 1.68l1.74 4.17c.39.93.4 1.98.02 2.92L161.87 1547.19zM49.25 1646.51l-9.67-3.48-2.17 3.85c0 0-11.47 10.64.08 17.15 4.5 2.54 9.78-1.93 7.95-6.77-.03-.07-.05-.14-.08-.2-.07-.17.15-.3.27-.16l2.78 3.26c.47.56 1.3.63 1.87.18l0 0c.52-.42.66-1.16.32-1.74l-2.27-3.91c-.51-.87-.66-1.91-.41-2.89L49.25 1646.51z"></path>
  <polygon fill="#fb6107" points="60.94 1593.15 37.14 1645.55 49.28 1650.14 71.79 1613.87"></polygon>
  <path fill="#fb6107" d="M84.08,1662.24l18.54-14.26c0,0,5.66-35.74,17.64-56.27l18.06,0.52c5.21,0.15,10.14-2.38,13.06-6.7
							l21.23-34.35l-11.35-6.65l-20.67,30.32l-20.7-6.99c-0.9-0.9-1.93-1.63-3.09-2.17c-6.64-3.09-29.71-12.02-43.27,5.56
							c-14.26,18.09-18.9,33.44-19.96,67.59l0,0L84.08,1662.24z"></path>
  <rect width="14.62" height="11.04" x="32.15" y="1790.15" fill="#f7c19b" transform="rotate(-69.218 39.465 1795.738)"></rect>
  <path fill="#37424c" d="M30.96,1798.23l-5.17,6.2c-0.43,0.52-0.7,1.11-0.77,1.73l0,0c-0.19,1.55,0.86,3.02,2.64,3.71l17.75,6.88
						c1.52,0.59,3.19,0.91,4.89,0.94l0,0c1.87,0.03,3.43-1.12,3.5-2.58l0,0c0.03-0.59-0.21-1.17-0.66-1.65l-9.16-11.95
						c-0.22-0.29-0.55-0.51-0.94-0.65l-9.46-3.26C32.64,1797.29,31.53,1797.55,30.96,1798.23z"></path>
  <rect width="11.04" height="14.62" x="103.96" y="1793.14" fill="#f7c19b" transform="translate(-10.616 .677)"></rect>
  <path fill="#37424c" d="M102.46,1806.05l-2.59,7.65c-0.22,0.64-0.25,1.29-0.1,1.89l0,0c0.38,1.51,1.89,2.51,3.8,2.51l19.04,0.03
						c1.63,0,3.3-0.3,4.9-0.88l0,0c1.75-0.64,2.8-2.28,2.33-3.66l0,0c-0.19-0.56-0.61-1.02-1.21-1.3l-12.85-7.85
						c-0.31-0.19-0.69-0.28-1.11-0.26l-10,0.37C103.68,1804.57,102.74,1805.21,102.46,1806.05z"></path>
  <path fill="#334d5e" d="M47.34,1795.87l29.03-58.33l4.78-48.46l14.33,43.33l6.27,64.84h15.69l-3.14-72.54l-11.69-76.72
						c0,0-30.52,5.7-49.06-9.13l1.71,94.12l-21.68,57.04L47.34,1795.87z"></path>
  <path fill="#f7c19b" d="M107.35,1558.52c-0.32-0.02-0.55,0.31-0.42,0.6l2.36,5.33c0.13,0.28,0.23,0.49,0.11,0.7
							c-0.35,0.56-0.74,1.01-1.18,1.38c-1.89,1.6-4.49,1.57-6.76,1.05c-2.33-0.52-4.3-1.55-4.76-1.85
							c-0.08-0.05-0.13-0.14-0.14-0.23l-0.82-8.75c-0.01-0.14-0.1-0.26-0.22-0.32c-5.72-3.35-5.84-11.29-5.84-11.29
							c0.77-17.43,13.64-15.62,19.88-13.7c2.08,0.64,3.71,2.29,4.32,4.38C120.4,1557.99,110.2,1558.73,107.35,1558.52z"></path>
  <path fill="#29354e" d="M97.74,1545l1.24,5.18c0.14,0.6,0.85,0.86,1.35,0.5l0,0c0.25-0.19,0.39-0.49,0.35-0.8l-0.49-3.92
							c-0.11-0.86,0.26-1.71,0.96-2.24c1.32-1.01,3.23-3.01,2.52-5.86c-0.15-0.61,0.25-1.23,0.87-1.33
							c2.17-0.34,6.46-1.26,8.02-3.31c0.29-0.38,0.61-0.73,0.95-1.05c0.98-0.89,2.63-2.89,1.26-5.32c-0.23-0.4-0.69-0.61-1.14-0.5
							l-3.78,0.91c-0.26,0.06-0.53-0.08-0.62-0.34l-1.14-3.15c-0.12-0.34-0.54-0.46-0.83-0.24l-3.76,2.97
							c-0.82,0.65-1.93,0.77-2.87,0.34c-1.96-0.9-5.81-1.88-10.49,1c-4.16,2.56-5.82,7.67-6.48,11.28c-0.44,2.37,0.21,4.8,1.74,6.65
							l3.59,4.34c0.13,0.16,0.25,0.33,0.36,0.51c0.81,1.35,3.79,7.61,6.25,5.98c0.07-0.04,0.1-0.13,0.08-0.21l0.11-3.42
							c-0.18-0.76-0.58-1.46-1.15-1.99c-1.54-1.44-4.37-4.65-1.57-6.52c0.94-0.63,2.1-0.84,3.2-0.58
							C96.93,1544.04,97.59,1544.36,97.74,1545z"></path>
  <g>
    <path fill="#0e4275" d="M519.61,1251.08v87.53h110.96v51.66H519.61v92.31h125.32v51.66H452.17v-334.81h192.76v51.66H519.61V1251.08z"></path>
    <path fill="#f7c19b" d="M475.24,1545.85l0.25-0.31c1.03-1.27,1.6-2.85,1.62-4.49l0.07-6.62c0.01-0.58,0.43-1.07,1.01-1.16l0,0
					c0.64-0.1,1.24,0.34,1.35,0.98l0.83,5.03c0.04,0.24,0.37,0.25,0.43,0.02c0.72-2.67,3.05-9.33,8.1-7.7
					c6.28,2.02,4.53,7.99,1.07,12.26s-7.01,7.84-7.01,7.84L475.24,1545.85z"></path>
    <rect width="8.2" height="9.9" x="390.44" y="1795.14" fill="#f7c19b"></rect>
    <rect width="7.99" height="9.85" x="433.34" y="1795.16" fill="#f7c19b"></rect>
    <path fill="#37424c" d="M433.23 1802.34c1.56.63 4.85 1.55 8.14-.15.3-.15.69-.12.93.08l10.35 8.69c.93.78 1.75 1.64 2.45 2.57l0 0c.33.44.35.99.05 1.44l0 0c-.31.47-.92.76-1.59.76h-21.02c-.65 0-1.26-.25-1.64-.68l0 0c-.3-.33-.43-.74-.37-1.14l1.64-11.11C432.24 1802.39 432.78 1802.15 433.23 1802.34zM397.37 1675.5h42.56l3.5 122.29c0 .84-.68 1.53-1.53 1.53h-9.72c-.78 0-1.44-.59-1.52-1.37l-7.88-84.83c-.13-1.26-1.2-2.22-2.47-2.22l0 0c-1.18 0-2.19.83-2.43 1.98l-16.76 85.22c-.15.71-.78 1.23-1.5 1.23h-10.11c-.9 0-1.61-.78-1.53-1.68L397.37 1675.5z"></path>
    <path fill="#bf6f31" d="M397.51,1676.27c5.99,2.14,24.68,7.56,44.47,0.35c1.2-0.44,2-1.57,2-2.85v-66.26
					c0-1.16-0.15-2.32-0.46-3.44l-0.13-0.48c-0.76-2.81-0.57-5.79,0.54-8.48l40.12-42.55c0.28-0.68-0.05-1.46-0.73-1.73l-7.42-7.19
					c-0.62-0.25-1.32,0.01-1.64,0.59l-38.96,32.33c-0.85,1.55-4.71,3.83-6.48,3.83l-15.68-1.27c-0.25,0-0.49,0.1-0.67,0.27
					l-14.89,14.71c-2.21,2.27-3.87,5.01-4.83,8.03l-10.79,33.6c-0.34,1.05-0.51,2.15-0.51,3.26v1.52c0,6.5,5.77,11.54,12.2,10.56
					c0.53-0.08,1.09-0.18,1.67-0.3l0.19,22.66C395.51,1674.72,396.31,1675.84,397.51,1676.27z"></path>
    <path fill="#f7c19b" d="M412.88 1579.64c1.27 1.13 5.29 3.96 10.31-.11.22-.18.35-.45.35-.73v-3.47c0-.64.53-1.14 1.17-1.14 1.97-.02 5.78-2.2 6.25-18.44.07-2.38-.79-4.7-2.42-6.43-4.33-4.6-13.53-11.25-20.97 4.53 0 0-2.95 8.57 2.56 13.46 1.55 1.37 2.46 3.32 2.44 5.39l-.08 6.02C412.46 1579.06 412.61 1579.4 412.88 1579.64zM429.12 1621.7l.54-.27c.53-.27.93-.74 1.11-1.31l1.25-4.11c.15-.5.72-.75 1.19-.51l0 0c.34.17.52.53.46.9l-.48 2.77c-.04.21.23.33.36.17 1.02-1.23 3.43-3.67 5.77-2.55 3.07 1.46 4.03 8.15 1.6 9.75-2.02 1.33-5.31 1.94-6.36 2.1-.22.04-.45.09-.66.17l-1.27.47L429.12 1621.7z"></path>
    <polyline fill="#bf6f31" points="389.75 1636.1 428.81 1621.34 432.79 1629.99 395.31 1650.79"></polyline>
    <path fill="#b26028" d="M395.32,1650.92c-0.04,0-0.09-0.02-0.11-0.06c-0.03-0.06-0.01-0.14,0.05-0.17l37.38-20.74l-3.88-8.44
						l-38.95,14.72c-0.07,0.02-0.14-0.01-0.16-0.07c-0.02-0.06,0.01-0.14,0.07-0.16l39.06-14.76c0.06-0.02,0.13,0.01,0.16,0.06
						l3.98,8.65c0.03,0.06,0,0.13-0.05,0.16l-37.48,20.8C395.36,1650.91,395.34,1650.92,395.32,1650.92z"></path>
    <path fill="#37424c" d="M412.5,1575.97h-1.98c-2.21,0-4.32-0.93-5.82-2.55l0,0c-1.41-1.54-2.2-3.55-2.2-5.64v-2.84
					c0-0.73,0.1-1.46,0.29-2.16l2.59-9.64c0.35-1.3-0.45-2.62-1.76-2.93c-3.04-0.73-8.59-3.51-4.6-9.34
					c3.57-5.22,8.08-1.87,10.07,0.91c0.56,0.78,1.61,1.01,2.45,0.55l0,0c1.88-1.02,3.98-1.55,6.12-1.55h5.27
					c2.67,0,5.17,1.43,6.45,3.78c1.04,1.91,1.78,4.46,1.12,7.48c-0.04,0.17-0.23,0.26-0.39,0.18l-6.95-3.44
					c-0.43-0.2-0.93,0.05-1.03,0.52c-0.5,2.44-2.17,9.15-6.12,12.77c-0.66,0.6-1.71,0.42-2.15-0.36c-0.51-0.91-1.27-2.04-2.26-2.74
					c-2.06-1.47-4.66,0.95-3.34,3.11c0.44,0.71,1.13,1.54,2.22,2.49c1.16,1.02,1.86,2.45,1.94,3.99L412.5,1575.97z"></path>
    <g>
      <path fill="#37424c" d="M390.65,1803.24c1.27,0.77,4.16,1.97,7.82-0.04c0.37-0.2,0.83,0.02,0.9,0.44l1.9,11.38
					c0.01,0.06,0.01,0.12,0.01,0.18v1.86c0,0.59-0.48,1.07-1.07,1.07h-12.47c-0.59,0-1.07-0.48-1.07-1.07v-1.67
					c0-0.09,0.01-0.18,0.04-0.27l3.03-11.5C389.84,1803.2,390.3,1803.02,390.65,1803.24z"></path>
    </g>
  </g>
  <g>
    <path fill="#0e4275" d="M983.38,1480.69l-129.92,6.74l-18.25,63.69l-71.17,3.69l100.62-340.49l79.77-4.14l134.86,328.26l-71.17,3.69
			L983.38,1480.69z M963.51,1430l-54.98-136.52l-40.08,141.46L963.51,1430z"></path>
    <path fill="#f7c19b" d="M761.99,1558.15l5.89,2.89l1.65-2.29c0,0,8.02-5.95,1.15-10.88c-2.68-1.92-6.34,0.54-5.52,3.73
					c0.01,0.04,0.02,0.09,0.04,0.14c0.03,0.11-0.12,0.18-0.18,0.08l-1.54-2.27c-0.26-0.39-0.78-0.49-1.18-0.24l0,0
					c-0.36,0.23-0.5,0.69-0.33,1.08l1.17,2.64c0.26,0.59,0.28,1.26,0.06,1.86L761.99,1558.15z"></path>
    <polygon fill="#f7c19b" points="692.7 1793.22 691.03 1808.13 680.52 1807.03 681.94 1792.69"></polygon>
    <path fill="#37424c" d="M677.53,1816.64c0.04,0.83,0.72,1.48,1.55,1.48l24.05-0.01c1.87,0,3.38-1.51,3.38-3.38l0,0
						c0-0.33-0.34-1.04-0.59-1.24l-13.19-10.21c-0.46-0.37-1.06-0.21-1.53,0.14c-2.94,2.2-7.06,2.23-11.23,2.02
						c-0.41-0.02-0.8,0.21-0.99,0.58C677.05,1809.86,677.39,1813.42,677.53,1816.64z"></path>
    <polygon fill="#f7c19b" points="734.72 1791.7 735.04 1808.34 724.52 1808.48 724.03 1792.51"></polygon>
    <path fill="#37424c" d="M721.29,1816.64c0.04,0.83,0.72,1.48,1.55,1.48l24.05-0.01c1.87,0,3.38-1.51,3.38-3.38l0,0
						c0-0.33-0.34-1.04-0.59-1.24l-13.19-10.21c-0.46-0.37-1.06-0.21-1.53,0.14c-2.97,2.21-7.13,2.23-11.33,2.01
						c-0.35-0.02-0.68,0.17-0.83,0.49C720.81,1809.8,721.15,1813.39,721.29,1816.64z"></path>
    <path fill="#f7c19b" d="m767.19 1623.63 1.75 6.32 2.81-.29c0 0 9.77 2.05 8.91-6.36-.34-3.28-4.61-4.38-6.45-1.65-.03.04-.05.08-.08.12-.06.1-.21.03-.18-.08l.67-2.65c.11-.45-.15-.91-.6-1.04l0 0c-.41-.12-.85.08-1.02.47l-1.2 2.63c-.27.59-.75 1.05-1.36 1.28L767.19 1623.63zM722.51 1575.22c-.33.05-.48.43-.28.7l3.57 4.81c.19.25.34.44.27.68-.22.64-.51 1.18-.87 1.65-1.53 2.03-4.14 2.59-6.53 2.59-2.46.01-4.66-.57-5.19-.77-.09-.03-.16-.11-.19-.2l-2.81-8.58c-.05-.13-.16-.24-.29-.28-6.49-2.06-8.42-9.99-8.42-9.99-3.19-17.63 10.11-18.75 16.8-18.25 2.23.17 4.23 1.46 5.32 3.41C735.46 1571.72 725.42 1574.78 722.51 1575.22z"></path>
    <path fill="#29354e" d="M709.81,1563.86l2.42,4.91c0.28,0.57,1.05,0.67,1.47,0.19l0,0c0.21-0.24,0.27-0.58,0.16-0.89l-1.38-3.81
						c-0.3-0.84-0.13-1.78,0.45-2.46c1.1-1.31,2.55-3.76,1.19-6.44c-0.29-0.58-0.03-1.29,0.57-1.53c2.09-0.84,6.18-2.73,7.28-5.14
						c0.2-0.44,0.44-0.87,0.72-1.26c0.78-1.12,1.98-3.49,0.05-5.61c-0.32-0.35-0.83-0.45-1.26-0.24l-3.58,1.77
						c-0.25,0.12-0.55,0.04-0.7-0.2l-1.86-2.9c-0.2-0.31-0.65-0.34-0.88-0.05l-3.09,3.83c-0.67,0.83-1.75,1.21-2.8,0.99
						c-2.17-0.46-6.25-0.56-10.28,3.38c-3.58,3.51-4.08,9.01-3.93,12.77c0.1,2.47,1.3,4.76,3.26,6.27l4.58,3.53
						c0.17,0.13,0.33,0.27,0.48,0.43c1.12,1.17,5.53,6.76,7.62,4.57c0.06-0.06,0.07-0.15,0.03-0.23l-0.67-3.45
						c-0.36-0.72-0.92-1.33-1.61-1.73c-1.87-1.1-5.44-3.66-3.05-6.18c0.79-0.84,1.91-1.32,3.07-1.31
						C708.78,1563.08,709.51,1563.25,709.81,1563.86z"></path>
    <polygon fill="#48495b" points="735.47 1656.94 736.89 1796.54 721.25 1796.54 714 1691.33 693.44 1796.54 679.61 1796.54 686.26 1662.95 714 1649.86"></polygon>
    <path fill="#2b91cc" d="M686.43,1647.93l3.65-17.3c0,0-7.44-35.92,20.97-51.13c0.14-0.07,0.34-0.14,0.47-0.2
						c0.03,0.02,0.05,0.05,0.07,0.07c1.36,1.38,2.6,2.33,3.97,2.78c2.11,0.76,4.29,0.39,6.72-1.3c0.74-0.46,1.5-1.08,2.28-1.81
						l21.02,2.58l15.3-24.76l9.7,2.9l-12.64,30.25c-1.65,3.93-5.6,6.38-9.85,6.11l-8.16-0.51l-2.88,17.35
						c5.66,6.43,9.92,11.69,9.92,11.69l21.37-2.33l1.77,8.95l-21.67,4.57c-5.2,0.59-10.37-1.28-14-5.05l-0.3-0.31l-0.54,3.25
						l1.84,23.2l0,0c-9.95,3.99-20.3,6.91-30.87,8.71l-18.84,3.21c-1.25,0.21-2.37-0.82-2.25-2.08
						C684.14,1660.45,685.11,1654.16,686.43,1647.93z"></path>
  </g>
  <g>
    <path fill="#0e4275" d="M1364.28,1510.54l-100.38-118.26l-21.71,3.57l21.56,131.21l-66.55,10.93l-54.12-329.44l121.3-19.93
			c25.49-4.19,47.93-3.27,67.34,2.75c19.41,6.02,34.82,15.77,46.25,29.24c11.42,13.48,18.63,29.34,21.63,47.58
			c3.41,20.77,0.29,41.16-9.34,61.16c-9.64,20-27.45,35.53-53.42,46.58l106.27,121.66L1364.28,1510.54z M1233.82,1344.87l54.75-8.99
			c16.67-2.74,28.71-9.15,36.1-19.26c7.38-10.1,9.87-22.54,7.44-37.33c-2.43-14.79-8.77-25.78-18.99-32.99
			c-10.23-7.2-23.69-9.44-40.36-6.7l-54.75,8.99L1233.82,1344.87z"></path>
    <path fill="#f7c19b" d="m1204.14 1544.02-6.52.71-.77-2.71c0 0-5.51-8.32 2.63-10.62 3.17-.9 5.77 2.67 3.91 5.39-.03.04-.05.08-.08.11-.07.09.05.21.14.14l2.22-1.61c.38-.27.9-.2 1.19.17l0 0c.26.34.24.82-.06 1.13l-2 2.08c-.45.47-.69 1.09-.69 1.73L1204.14 1544.02zM1194.84 1634.2l1.2 6.45-2.65.97c0 0-7.89 6.12-10.79-1.82-1.13-3.1 2.23-5.96 5.08-4.31.04.02.08.05.12.07.1.06.2-.06.13-.15l-1.77-2.09c-.3-.36-.26-.89.08-1.2l0 0c.32-.29.8-.3 1.13-.02l2.23 1.84c.5.41 1.14.61 1.78.56L1194.84 1634.2z"></path>
    <path fill="#37424c" d="M1221.51,1572.96c0,0-10.34,2.61-5.85,14.18l19.25,13.46l14.2,10.72l8.18,1.45c0,0,17.06-0.18,9.61-13.96
							c0,0,2.75-9.97-7.46-13.77c0,0-1.26-5.34-8.63-6.04"></path>
    <path fill="#f7c19b" d="M1231.54,1577.11c-0.43,1.36-0.85,5.09-1.81,6.38c-0.5,0.67-0.4,1.61,0.22,2.17
							c1.68,1.51,2.93,3.3,7.92,3.14c0.86-0.03,1.55-0.7,1.59-1.56c0.12-2.97,2.54-11.08,4.11-13.16c0,0,13.24-21.02-7.68-20.39
							c-0.37,0.01-0.96,0.12-1.31,0.23l-1.92,0.62c-1.63,0.53-2.95,1.75-3.59,3.35c-1.93,4.78-5.1,14.82,1.24,16.85
							C1231.3,1575.06,1231.86,1576.11,1231.54,1577.11z"></path>
    <path fill="#37424c" d="M1231.64,1576.81l0.21-0.82c0.12-0.45-0.19-0.86-0.64-0.97c-1.41-0.34-4.48-1.44-4.56-6.58
							c-0.1-6.17,4.04-11.62,9.84-13.72l0.34-0.12c0.22-0.08,0.5,0.03,0.56,0.26c0.32,1.13-1.95,3.99-0.74,6.64
							c1.42,3.14,1.98,6.6,0.93,9.88l-0.16,0.5c-0.46,1.44-0.58,2.94-0.32,4.41c0.53,2.98-1.32,11.83,4.17,12.46
							c1.73,0.2,9.56-5.44,9.39-7.18l0,0c-0.11-1.11,0.01-2.24,0.35-3.3l4.06-12.75c0.28-0.89,0.47-1.81,0.52-2.75
							c0.27-4.81-0.55-18.65-19.2-17.39c0,0-6.42,0.79-8.56,7.49l-3.23,10.15c-0.12,0.39-0.21,0.8-0.26,1.2
							c-0.18,1.44-0.8,5.39-2.69,8.29c-0.08,0.13-0.13,0.28-0.14,0.43l0,0"></path>
    <path fill="#f7c19b" d="m1207.13 1728.09-5.95 80.21h11.13c-2.04-15.21 7.02-46 15.01-75.3L1207.13 1728.09zM1231.45 1732.75l16.26 75.34 9.1-4.96-.85-3.95c-2.36-10.97-3.68-22.14-3.95-33.36l-.89-37.73L1231.45 1732.75z"></path>
    <path fill="#fa5669" d="M1251.81,1620.36l-4.66,3.97c-0.86,16.73,5.69,25.88,5.69,25.88l-14.15,10.18l-27.17-11.21
									c4.64-10.42,7.02-22.12,7.89-34.67c-7.37-9.83-1.25-18.11-1.25-18.11l-16.98-14.32c-2.08-1.76-3.33-4.3-3.45-7.03
									l-1.31-31.27l8.8-2.24l1.82,27.14c0.15,2.31,1.55,4.34,3.65,5.32l19.3,8.99c1.64,9.92,10.24,2.89,10.24,2.89l0,0
									c8.35,1.34,14.76,8.51,14.58,16.96C1254.73,1607.31,1253.88,1613.04,1251.81,1620.36z"></path>
    <path fill="#48495b" d="M1211.53,1649.17c-9.46,27.14-12.91,58.13-11.99,91.94l6.21-2.05c7.2-2.38,14.95-2.58,22.27-0.59
									l0.26,0.07c7.78,2.12,16.04,1.69,23.56-1.21l0,0c5.36-2.07,10.99-3.36,16.72-3.84l14.14-1.18
									c-7.85-12.26-14.47-25.27-18.25-40.01c-1.34-5.23-2.02-10.59-2.48-15.98c-0.54-6.26-2.44-17.67-9.11-26.13L1211.53,1649.17z
									"></path>
    <polygon fill="#fa5669" points="1221.27 1623.64 1192.64 1633.47 1194.36 1642.79 1223.34 1633.21"></polygon>
    <g>
      <path fill="#37424c" d="M1246.68,1802.65h10.02l2.49,11.55c0.04,0.18,0.06,0.36,0.06,0.55v0.98c0,1.32-1.07,2.4-2.4,2.4h-25.71
					c-0.68,0-1.3-0.37-1.63-0.96l0,0c-0.45-0.82-0.22-1.85,0.53-2.4c6.76-2.95,12.47-6.75,16.4-12.03
					C1246.52,1802.68,1246.6,1802.65,1246.68,1802.65z"></path>
    </g>
    <g>
      <path fill="#37424c" d="M1201.6,1802.65h10.45l2.49,11.55c0.04,0.18,0.06,0.36,0.06,0.55v0.98c0,1.32-1.07,2.4-2.4,2.4h-25.71
					c-0.68,0-1.3-0.37-1.63-0.96l0,0c-0.45-0.82-0.22-1.85,0.53-2.4C1192.17,1811.8,1197.67,1807.97,1201.6,1802.65z"></path>
    </g>
  </g>
  <g>
    <path fill="#0e4275" d="M2088.67,1211.45v333.86h-67.44v-333.86H2088.67z"></path>
    <path fill="#f7c19b" d="M2012.31,1545.85l0.25-0.31c1.03-1.27,1.6-2.85,1.62-4.49l0.07-6.62c0.01-0.58,0.43-1.07,1.01-1.16l0,0
					c0.64-0.1,1.24,0.34,1.35,0.98l0.83,5.03c0.04,0.24,0.37,0.25,0.43,0.02c0.72-2.67,3.05-9.33,8.1-7.7
					c6.28,2.02,4.53,7.99,1.07,12.26c-3.46,4.27-7.01,7.84-7.01,7.84L2012.31,1545.85z"></path>
    <rect width="8.2" height="9.9" x="1927.51" y="1795.14" fill="#f7c19b"></rect>
    <rect width="7.99" height="9.85" x="1970.41" y="1795.16" fill="#f7c19b"></rect>
    <path fill="#37424c" d="M1970.3 1802.34c1.56.63 4.85 1.55 8.14-.15.3-.15.69-.12.93.08l10.35 8.69c.93.78 1.75 1.64 2.45 2.57l0 0c.33.44.35.99.05 1.44l0 0c-.31.47-.92.76-1.59.76h-21.02c-.65 0-1.26-.25-1.64-.68l0 0c-.3-.33-.43-.74-.37-1.14l1.64-11.11C1969.31 1802.39 1969.85 1802.15 1970.3 1802.34zM1934.44 1675.5H1977l3.5 122.29c0 .84-.68 1.53-1.53 1.53h-9.72c-.78 0-1.44-.59-1.52-1.37l-7.88-84.83c-.13-1.26-1.2-2.22-2.47-2.22l0 0c-1.18 0-2.19.83-2.43 1.98l-16.76 85.22c-.15.71-.78 1.23-1.5 1.23h-10.11c-.9 0-1.61-.78-1.53-1.68L1934.44 1675.5z"></path>
    <path fill="#bf6f31" d="M1934.57,1676.27c5.99,2.14,24.68,7.56,44.47,0.35c1.2-0.44,2-1.57,2-2.85v-66.26
					c0-1.16-0.15-2.32-0.46-3.44l-0.13-0.48c-0.76-2.81-0.57-5.79,0.54-8.48l40.12-42.55c0.28-0.68-0.05-1.46-0.73-1.73l-7.42-7.19
					c-0.62-0.25-1.32,0.01-1.64,0.59l-38.96,32.33c-0.85,1.55-4.71,3.83-6.48,3.83l-15.68-1.27c-0.25,0-0.49,0.1-0.67,0.27
					l-14.89,14.71c-2.21,2.27-3.87,5.01-4.83,8.03l-10.79,33.6c-0.34,1.05-0.51,2.15-0.51,3.26v1.52c0,6.5,5.77,11.54,12.2,10.56
					c0.53-0.08,1.09-0.18,1.67-0.3l0.19,22.66C1932.58,1674.72,1933.38,1675.84,1934.57,1676.27z"></path>
    <path fill="#f7c19b" d="M1949.94 1579.64c1.27 1.13 5.29 3.96 10.31-.11.22-.18.35-.45.35-.73v-3.47c0-.64.53-1.14 1.17-1.14 1.97-.02 5.78-2.2 6.25-18.44.07-2.38-.79-4.7-2.42-6.43-4.33-4.6-13.53-11.25-20.97 4.53 0 0-2.95 8.57 2.56 13.46 1.55 1.37 2.46 3.32 2.44 5.39l-.08 6.02C1949.53 1579.06 1949.68 1579.4 1949.94 1579.64zM1966.19 1621.7l.54-.27c.53-.27.93-.74 1.11-1.31l1.25-4.11c.15-.5.72-.75 1.19-.51l0 0c.34.17.52.53.46.9l-.48 2.77c-.04.21.23.33.36.17 1.02-1.23 3.43-3.67 5.77-2.55 3.07 1.46 4.03 8.15 1.6 9.75-2.02 1.33-5.31 1.94-6.35 2.1-.22.04-.45.09-.66.17l-1.27.47L1966.19 1621.7z"></path>
    <polyline fill="#bf6f31" points="1926.82 1636.1 1965.88 1621.34 1969.86 1629.99 1932.38 1650.79"></polyline>
    <path fill="#b26028" d="M1932.38,1650.92c-0.04,0-0.09-0.02-0.11-0.06c-0.03-0.06-0.01-0.14,0.05-0.17l37.38-20.74l-3.88-8.44
						l-38.95,14.72c-0.07,0.02-0.14-0.01-0.16-0.07c-0.02-0.06,0.01-0.14,0.07-0.16l39.06-14.76c0.06-0.02,0.13,0.01,0.16,0.06
						l3.98,8.65c0.03,0.06,0,0.13-0.05,0.16l-37.48,20.8C1932.42,1650.91,1932.4,1650.92,1932.38,1650.92z"></path>
    <path fill="#37424c" d="M1949.57,1575.97h-1.98c-2.21,0-4.32-0.93-5.82-2.55l0,0c-1.41-1.54-2.2-3.55-2.2-5.64v-2.84
					c0-0.73,0.1-1.46,0.29-2.16l2.59-9.64c0.35-1.3-0.45-2.62-1.76-2.93c-3.04-0.73-8.59-3.51-4.6-9.34
					c3.57-5.22,8.08-1.87,10.07,0.91c0.56,0.78,1.61,1.01,2.45,0.55l0,0c1.88-1.02,3.98-1.55,6.12-1.55h5.27
					c2.67,0,5.17,1.43,6.45,3.78c1.04,1.91,1.78,4.46,1.12,7.48c-0.04,0.17-0.23,0.26-0.39,0.18l-6.95-3.44
					c-0.43-0.2-0.93,0.05-1.03,0.52c-0.5,2.44-2.17,9.15-6.12,12.77c-0.66,0.6-1.71,0.42-2.15-0.36c-0.51-0.91-1.27-2.04-2.26-2.74
					c-2.06-1.47-4.66,0.95-3.34,3.11c0.44,0.71,1.13,1.54,2.22,2.49c1.16,1.02,1.86,2.45,1.94,3.99L1949.57,1575.97z"></path>
    <g>
      <path fill="#37424c" d="M1927.72,1803.24c1.27,0.77,4.16,1.97,7.82-0.04c0.37-0.2,0.83,0.02,0.9,0.44l1.9,11.38
					c0.01,0.06,0.01,0.12,0.01,0.18v1.86c0,0.59-0.48,1.07-1.07,1.07h-12.47c-0.59,0-1.07-0.48-1.07-1.07v-1.67
					c0-0.09,0.01-0.18,0.04-0.27l3.03-11.5C1926.91,1803.2,1927.37,1803.02,1927.72,1803.24z"></path>
    </g>
  </g>
  <g>
    <path fill="#0e4275" d="M2525.1,1541.83h-67.44l-151.14-231.5v231.5h-67.44v-334.81h67.44l151.14,231.5v-231.5h67.44V1541.83z"></path>
    <path fill="#f7c19b" d="M2445.18,1542.46l6.24,3.06l1.75-2.43c0,0,8.51-6.3,1.22-11.54c-2.84-2.04-6.72,0.57-5.85,3.96
					c0.01,0.05,0.02,0.1,0.04,0.14c0.03,0.12-0.12,0.19-0.19,0.09l-1.63-2.4c-0.28-0.41-0.83-0.52-1.25-0.26l0,0
					c-0.38,0.24-0.53,0.73-0.35,1.14l1.24,2.8c0.28,0.63,0.3,1.33,0.06,1.98L2445.18,1542.46z"></path>
    <polygon fill="#f7c19b" points="2371.7 1791.72 2369.94 1807.52 2358.79 1806.36 2360.29 1791.16"></polygon>
    <path fill="#37424c" d="M2355.61,1816.55c0.04,0.88,0.76,1.57,1.64,1.57l25.5-0.01c1.98,0,3.58-1.61,3.58-3.59l0,0
						c0-0.35-0.36-1.1-0.63-1.32l-13.98-10.83c-0.49-0.39-1.12-0.22-1.62,0.15c-3.12,2.33-7.49,2.37-11.91,2.14
						c-0.44-0.02-0.85,0.22-1.05,0.61C2355.11,1809.36,2355.47,1813.13,2355.61,1816.55z"></path>
    <polygon fill="#f7c19b" points="2416.26 1790.11 2416.6 1807.75 2405.45 1807.9 2404.93 1790.96"></polygon>
    <path fill="#37424c" d="M2402.02,1816.55c0.04,0.88,0.76,1.57,1.64,1.57l25.5-0.01c1.98,0,3.58-1.61,3.58-3.59l0,0
						c0-0.35-0.36-1.1-0.63-1.32l-13.99-10.83c-0.49-0.39-1.12-0.22-1.62,0.15c-3.15,2.35-7.56,2.37-12.01,2.13
						c-0.37-0.02-0.72,0.18-0.89,0.51C2401.51,1809.3,2401.87,1813.1,2402.02,1816.55z"></path>
    <path fill="#f7c19b" d="m2450.69 1611.89 1.85 6.7 2.97-.3c0 0 10.36 2.18 9.44-6.75-.36-3.48-4.89-4.64-6.84-1.75-.03.04-.05.08-.08.12-.07.1-.22.03-.19-.08l.72-2.81c.12-.48-.16-.97-.63-1.1l0 0c-.44-.13-.9.09-1.09.5l-1.27 2.78c-.28.62-.8 1.11-1.44 1.36L2450.69 1611.89zM2403.31 1560.55c-.34.06-.51.46-.3.74l3.79 5.1c.2.26.36.46.28.72-.24.68-.54 1.25-.92 1.75-1.62 2.16-4.39 2.75-6.93 2.75-2.6.01-4.94-.61-5.5-.82-.1-.03-.17-.11-.21-.21l-2.98-9.1c-.05-.14-.16-.25-.31-.29-6.89-2.18-8.92-10.59-8.92-10.59-3.39-18.7 10.72-19.88 17.81-19.35 2.37.18 4.49 1.54 5.65 3.61C2417.05 1556.84 2406.4 1560.09 2403.31 1560.55z"></path>
    <path fill="#29354e" d="M2389.85,1548.5l2.57,5.21c0.3,0.6,1.11,0.71,1.55,0.2l0,0c0.22-0.26,0.29-0.62,0.17-0.94l-1.47-4.04
						c-0.32-0.89-0.13-1.88,0.47-2.61c1.16-1.39,2.71-3.98,1.26-6.83c-0.31-0.61-0.03-1.36,0.61-1.62c2.22-0.89,6.56-2.9,7.72-5.45
						c0.21-0.47,0.47-0.92,0.76-1.34c0.82-1.18,2.1-3.7,0.06-5.95c-0.34-0.37-0.88-0.48-1.33-0.25l-3.8,1.87
						c-0.26,0.13-0.58,0.04-0.74-0.21l-1.97-3.08c-0.21-0.33-0.69-0.36-0.94-0.05l-3.28,4.06c-0.71,0.88-1.86,1.29-2.97,1.05
						c-2.3-0.49-6.63-0.6-10.9,3.59c-3.8,3.72-4.33,9.55-4.16,13.55c0.11,2.62,1.38,5.05,3.46,6.65l4.86,3.75
						c0.18,0.14,0.35,0.29,0.51,0.45c1.19,1.24,5.86,7.17,8.08,4.85c0.06-0.06,0.07-0.16,0.03-0.24l-0.71-3.66
						c-0.38-0.77-0.97-1.41-1.71-1.84c-1.99-1.16-5.77-3.88-3.24-6.55c0.84-0.89,2.03-1.4,3.26-1.39
						C2388.75,1547.68,2389.53,1547.86,2389.85,1548.5z"></path>
    <polygon fill="#48495b" points="2417.06 1647.2 2418.56 1795.24 2401.98 1795.24 2394.29 1683.67 2372.49 1795.24 2357.83 1795.24 2364.88 1653.58 2394.29 1639.7"></polygon>
    <path fill="#2b91cc" d="M2365.05,1637.65l3.87-18.34c0,0-7.89-38.08,22.24-54.22c0.15-0.08,0.36-0.14,0.5-0.21
						c0.03,0.03,0.05,0.05,0.08,0.08c1.44,1.47,2.76,2.47,4.21,2.94c2.23,0.81,4.55,0.41,7.12-1.37c0.78-0.49,1.59-1.15,2.42-1.92
						l22.29,2.74l16.23-26.26l10.28,3.08l-13.4,32.07c-1.74,4.16-5.93,6.77-10.44,6.48l-8.66-0.54l-3.05,18.39
						c6,6.82,10.52,12.4,10.52,12.4l22.66-2.47l1.88,9.49l-22.98,4.85c-5.51,0.62-10.99-1.36-14.84-5.35l-0.32-0.33l-0.57,3.45
						l1.96,24.61l0,0c-10.55,4.23-21.52,7.33-32.73,9.24l-19.98,3.4c-1.32,0.23-2.52-0.87-2.39-2.21
						C2362.63,1650.93,2363.66,1644.26,2365.05,1637.65z"></path>
  </g>
  <g>
    <path fill="#0e4275" d="M2905.19,1212.54c30.24,20.15,51.75,48.3,64.53,84.45l-87.06-0.65c-15.91-31.71-43.26-47.72-82.06-48.01
			c-21.64-0.16-40.82,4.51-57.55,13.99c-16.73,9.49-29.79,23.14-39.2,40.92c-9.41,17.79-14.19,38.36-14.37,61.71
			c-0.17,23.36,4.3,44,13.44,61.92c9.14,17.93,21.99,31.85,38.58,41.76c16.58,9.91,35.69,14.95,57.33,15.11
			c26.79,0.2,48.73-6.93,65.84-21.4c17.11-14.46,27.81-34.05,32.12-58.75l-119.51-0.89l0.41-55.12l197.3,1.48l-0.41,55.12
			c-3.97,25.05-13.94,48.76-29.9,71.13c-15.97,22.38-36.62,40.43-61.97,54.14c-25.35,13.72-53.47,20.46-84.38,20.23
			c-33.66-0.25-64.51-8.29-92.55-24.13c-28.04-15.83-50.12-37.81-66.22-65.92c-16.11-28.11-24.02-59.85-23.76-95.22
			c0.26-35.03,8.65-66.47,25.18-94.34c16.52-27.87,38.92-49.59,67.2-65.18c28.27-15.58,59.24-23.26,92.9-23.01
			C2840.25,1182.18,2874.94,1192.4,2905.19,1212.54z"></path>
    <path fill="#f7c19b" d="m2818.25 1554.98-6.26.68-.74-2.6c0 0-5.29-7.99 2.52-10.2 3.04-.86 5.54 2.56 3.76 5.18-.02.04-.05.07-.08.11-.06.09.05.2.14.14l2.13-1.54c.36-.26.87-.19 1.14.16l0 0c.25.32.23.78-.06 1.08l-1.92 2c-.43.45-.67 1.04-.66 1.66L2818.25 1554.98zM2809.32 1641.56l1.15 6.19-2.54.93c0 0-7.57 5.88-10.36-1.75-1.09-2.97 2.14-5.72 4.88-4.13.04.02.08.04.12.07.09.06.2-.06.12-.14l-1.7-2.01c-.29-.34-.25-.85.08-1.15l0 0c.3-.27.77-.29 1.08-.02l2.14 1.76c.48.39 1.09.59 1.71.53L2809.32 1641.56z"></path>
    <path fill="#37424c" d="M2834.92,1582.76c0,0-9.93,2.5-5.62,13.61l18.48,12.92l13.63,10.29l7.85,1.39c0,0,16.38-0.17,9.23-13.4
							c0,0,2.64-9.58-7.16-13.22c0,0-1.21-5.12-8.28-5.8"></path>
    <path fill="#f7c19b" d="M2844.55,1586.75c-0.41,1.3-0.82,4.89-1.74,6.13c-0.48,0.64-0.39,1.54,0.21,2.08
							c1.61,1.45,2.82,3.17,7.6,3.01c0.82-0.03,1.49-0.67,1.52-1.49c0.12-2.85,2.44-10.64,3.95-12.63c0,0,12.71-20.18-7.37-19.57
							c-0.36,0.01-0.92,0.12-1.26,0.23l-1.84,0.6c-1.57,0.51-2.83,1.68-3.45,3.21c-1.85,4.59-4.9,14.23,1.19,16.18
							C2844.32,1584.79,2844.85,1585.79,2844.55,1586.75z"></path>
    <path fill="#37424c" d="M2844.64,1586.46l0.21-0.79c0.11-0.43-0.18-0.82-0.62-0.93c-1.35-0.33-4.3-1.39-4.38-6.32
							c-0.1-5.92,3.87-11.16,9.45-13.17l0.32-0.12c0.22-0.08,0.48,0.03,0.54,0.25c0.31,1.08-1.87,3.83-0.72,6.37
							c1.37,3.01,1.9,6.33,0.9,9.49l-0.15,0.48c-0.44,1.39-0.56,2.82-0.31,4.24c0.51,2.86-1.26,11.36,4,11.96
							c1.66,0.19,9.18-5.23,9.02-6.89l0,0c-0.1-1.07,0.01-2.15,0.34-3.17l3.89-12.24c0.27-0.86,0.45-1.74,0.5-2.64
							c0.26-4.62-0.53-17.91-18.43-16.69c0,0-6.16,0.76-8.21,7.19l-3.1,9.74c-0.12,0.38-0.21,0.76-0.25,1.16
							c-0.17,1.39-0.77,5.18-2.58,7.96c-0.08,0.12-0.13,0.27-0.13,0.41l0,0"></path>
    <path fill="#f7c19b" d="m2821.11 1731.69-5.71 77.01h10.68c-1.95-14.6 6.74-44.16 14.41-72.29L2821.11 1731.69zM2844.46 1736.16l15.61 72.33 8.73-4.76-.82-3.79c-2.27-10.53-3.54-21.25-3.79-32.02l-.86-36.22L2844.46 1736.16z"></path>
    <path fill="#fa5669" d="M2864,1628.27l-4.47,3.81c-0.83,16.06,5.47,24.84,5.47,24.84l-13.58,9.77l-26.08-10.76
									c4.46-10,6.73-21.24,7.58-33.29c-7.08-9.44-1.2-17.39-1.2-17.39l-16.3-13.75c-2-1.69-3.2-4.13-3.31-6.74l-1.26-30.02
									l8.45-2.15l1.75,26.05c0.15,2.21,1.49,4.17,3.5,5.11l18.53,8.63c1.57,9.52,9.83,2.77,9.83,2.77l0,0
									c8.02,1.28,14.17,8.17,13.99,16.29C2866.81,1615.74,2866,1621.25,2864,1628.27z"></path>
    <path fill="#48495b" d="M2825.33,1655.93c-9.08,26.05-12.39,55.81-11.51,88.27l5.96-1.97c6.92-2.28,14.35-2.48,21.38-0.57
									l0.25,0.07c7.47,2.03,15.39,1.62,22.62-1.16l0,0c5.15-1.99,10.55-3.23,16.05-3.69l13.57-1.13
									c-7.53-11.77-13.9-24.25-17.52-38.41c-1.29-5.03-1.94-10.17-2.38-15.34c-0.52-6.01-2.34-16.97-8.74-25.08L2825.33,1655.93z"></path>
    <polygon fill="#fa5669" points="2834.69 1631.42 2807.2 1640.86 2808.86 1649.8 2836.68 1640.61"></polygon>
    <g>
      <path fill="#37424c" d="M2859.09,1803.27h9.62l2.39,11.08c0.04,0.17,0.06,0.35,0.06,0.52v0.94c0,1.27-1.03,2.3-2.3,2.3h-24.68
					c-0.65,0-1.25-0.35-1.57-0.93l0,0c-0.43-0.79-0.21-1.77,0.51-2.3c6.49-2.83,11.97-6.48,15.74-11.55
					C2858.93,1803.3,2859.01,1803.27,2859.09,1803.27z"></path>
    </g>
    <g>
      <path fill="#37424c" d="M2815.8,1803.27h10.03l2.39,11.08c0.04,0.17,0.06,0.35,0.06,0.52v0.94c0,1.27-1.03,2.3-2.3,2.3h-24.68
					c-0.65,0-1.25-0.35-1.57-0.93l0,0c-0.43-0.79-0.21-1.77,0.51-2.3C2806.76,1812.05,2812.03,1808.38,2815.8,1803.27z"></path>
    </g>
  </g>
  <g>
    <path fill="#0e4275" d="M1831.07,1533.96h-67.44l-151.14-231.5v231.5h-67.44v-334.81h67.44l151.14,231.5v-231.5h67.44
			L1831.07,1533.96L1831.07,1533.96z"></path>
    <path fill="#8a4224" d="M1668.8,1666.74v34.32c0,2.05-1.09,3.71-2.43,3.71h-59.74c-1.35,0-2.43-1.66-2.43-3.71v-34.32H1668.8z"></path>
    <rect width="4.79" height="4.05" x="1618.67" y="1678.43" fill="#bf6f31"></rect>
    <rect width="4.79" height="4.05" x="1649.29" y="1678.43" fill="#bf6f31"></rect>
    <path fill="#bf6f31" d="M1668.79,1661.91v12.98c0,1.83-1.48,3.31-3.31,3.31h-57.98c-1.83,0-3.32-1.48-3.32-3.31v-12.98
								c0-1.35,1.09-2.43,2.43-2.43h59.74C1667.7,1659.48,1668.79,1660.57,1668.79,1661.91z"></path>
    <path fill="#8a4224" d="M1646.04,1659.48h-1.13c-1.36-6.75-10.37-7.74-13.14-7.89c-1.12-0.06-1.95,0.26-2.56,0.95
								c-1.74,1.99-1.07,6.39-0.99,6.93h-1.13c-0.17-1.11-0.67-5.43,1.28-7.66c0.84-0.96,2-1.41,3.46-1.33
								C1634.83,1650.64,1644.68,1651.74,1646.04,1659.48z"></path>
    <rect width="6.3" height="5.88" x="1648.53" y="1672.55" fill="#8a4224"></rect>
    <g>
      <rect width="6.3" height="5.88" x="1618" y="1672.55" fill="#8a4224"></rect>
    </g>
    <g>
      <path fill="#f7c19b" d="m1760.17 1539.6 9.38 4.86 2.74-3.63c0 0 13.13-9.29 2.24-17.49-4.24-3.19-10.22.64-9.02 5.82.02.07.03.15.05.22.04.18-.19.28-.29.13l-2.39-3.7c-.41-.63-1.24-.82-1.88-.44l0 0c-.59.36-.83 1.09-.57 1.73l1.79 4.29c.4.96.41 2.04.03 3L1760.17 1539.6zM1644.39 1641.7l-9.94-3.58-2.23 3.96c0 0-11.79 10.94.09 17.63 4.63 2.61 10.05-1.99 8.17-6.96-.03-.07-.05-.14-.08-.21-.07-.17.15-.31.27-.17l2.86 3.35c.49.57 1.34.65 1.93.18l0 0c.54-.43.68-1.19.33-1.78l-2.34-4.02c-.52-.9-.67-1.97-.42-2.97L1644.39 1641.7z"></path>
      <polygon fill="#1d3557" points="1656.41 1586.84 1631.95 1640.71 1644.42 1645.43 1667.56 1608.15"></polygon>
      <path fill="#1d3557" d="M1680.2,1657.87l19.06-14.66c0,0,5.82-36.74,18.13-57.85l18.56,0.54c5.36,0.15,10.43-2.44,13.43-6.89
							l21.83-35.32l-11.67-6.84l-21.25,31.17l-21.28-7.18c-0.92-0.93-1.99-1.68-3.17-2.23c-6.83-3.18-30.54-12.36-44.48,5.72
							c-14.66,18.6-19.42,34.38-20.52,69.49l0,0L1680.2,1657.87z"></path>
      <polygon fill="#f7c19b" points="1636.88 1804.01 1626.5 1800.04 1631.72 1786.19 1642.1 1790.16"></polygon>
      <path fill="#37424c" d="M1625.34,1797.82l-5.32,6.38c-0.45,0.53-0.72,1.14-0.79,1.77l0,0c-0.19,1.59,0.88,3.11,2.71,3.82
						l18.25,7.08c1.56,0.61,3.28,0.94,5.02,0.97l0,0c1.92,0.04,3.53-1.15,3.59-2.65l0,0c0.03-0.61-0.21-1.21-0.67-1.69l-9.42-12.29
						c-0.23-0.29-0.56-0.53-0.96-0.66l-9.72-3.35C1627.06,1796.86,1625.92,1797.12,1625.34,1797.82z"></path>
      <polygon fill="#f7c19b" points="1711.61 1808.13 1701.11 1808.21 1701.03 1791.71 1711.52 1791.64"></polygon>
      <path fill="#37424c" d="M1699.11,1805.71l-2.66,7.86c-0.22,0.66-0.26,1.32-0.1,1.94l0,0c0.4,1.56,1.94,2.58,3.91,2.58l19.57,0.03
						c1.67,0,3.39-0.31,5.04-0.91l0,0c1.8-0.66,2.88-2.35,2.4-3.77l0,0c-0.19-0.58-0.63-1.05-1.24-1.34l-13.21-8.07
						c-0.32-0.19-0.71-0.29-1.14-0.27l-10.28,0.38C1700.37,1804.19,1699.4,1804.85,1699.11,1805.71z"></path>
      <path fill="#334d5e" d="M1642.43,1795.24l29.85-59.97l4.91-49.82l14.73,44.54l6.45,66.66h16.13l-3.23-74.57l-12.02-78.87
						c0,0-31.37,5.86-50.43-9.38l1.76,96.76l-22.28,58.64L1642.43,1795.24z"></path>
      <path fill="#f7c19b" d="M1704.12,1551.25c-0.33-0.02-0.56,0.32-0.43,0.62l2.42,5.48c0.13,0.28,0.24,0.5,0.11,0.72
							c-0.36,0.57-0.76,1.04-1.21,1.42c-1.94,1.65-4.62,1.61-6.95,1.08c-2.4-0.53-4.42-1.59-4.89-1.9
							c-0.08-0.05-0.13-0.14-0.15-0.24l-0.84-9c-0.02-0.14-0.1-0.26-0.22-0.33c-5.88-3.45-6-11.61-6-11.61
							c0.79-17.91,14.02-16.06,20.43-14.09c2.14,0.66,3.81,2.36,4.44,4.51C1717.53,1550.7,1707.06,1551.46,1704.12,1551.25z"></path>
      <path fill="#29354e" d="M1694.24,1537.34l1.28,5.33c0.15,0.62,0.88,0.89,1.39,0.51l0,0c0.26-0.19,0.4-0.51,0.36-0.83l-0.5-4.03
							c-0.11-0.89,0.27-1.76,0.98-2.3c1.36-1.04,3.32-3.1,2.59-6.02c-0.16-0.63,0.25-1.26,0.9-1.36c2.23-0.35,6.64-1.3,8.24-3.4
							c0.29-0.39,0.62-0.75,0.98-1.07c1.01-0.92,2.7-2.97,1.3-5.46c-0.23-0.41-0.71-0.62-1.17-0.51l-3.89,0.93
							c-0.27,0.06-0.55-0.08-0.64-0.35l-1.17-3.24c-0.13-0.35-0.56-0.47-0.85-0.24l-3.86,3.05c-0.84,0.66-1.98,0.8-2.95,0.35
							c-2.02-0.93-5.98-1.94-10.78,1.02c-4.27,2.63-5.98,7.89-6.66,11.6c-0.45,2.43,0.22,4.93,1.79,6.84l3.69,4.46
							c0.14,0.17,0.26,0.34,0.37,0.52c0.84,1.39,3.9,7.82,6.42,6.15c0.07-0.05,0.1-0.13,0.08-0.21l0.11-3.52
							c-0.19-0.78-0.6-1.5-1.19-2.05c-1.58-1.49-4.49-4.78-1.61-6.71c0.96-0.64,2.16-0.86,3.29-0.6
							C1693.41,1536.36,1694.09,1536.69,1694.24,1537.34z"></path>
    </g>
  </g>
</svg>
